<?xml version="1.0" encoding="UTF-8"?>
<svg version="1.1" xmlns="http://www.w3.org/2000/svg" width="256" height="256">
<path d="M0 0 C0.72928711 0.20898926 1.45857422 0.41797852 2.20996094 0.63330078 C23.09131849 6.85298225 40.20757702 18.1495812 56 33 C56.59039062 33.5259375 57.18078125 34.051875 57.7890625 34.59375 C72.88646754 48.6178798 83.82296404 69.23667738 89 89 C89.19319824 89.69512695 89.38639648 90.39025391 89.58544922 91.10644531 C95.48315015 112.93516044 95.26252076 137.28033028 89 159 C88.68651611 160.09393066 88.68651611 160.09393066 88.36669922 161.20996094 C82.14701775 182.09131849 70.8504188 199.20757702 56 215 C55.4740625 215.59039062 54.948125 216.18078125 54.40625 216.7890625 C40.3821202 231.88646754 19.76332262 242.82296404 0 248 C-0.69512695 248.19319824 -1.39025391 248.38639648 -2.10644531 248.58544922 C-23.93516044 254.48315015 -48.28033028 254.26252076 -70 248 C-70.72928711 247.79101074 -71.45857422 247.58202148 -72.20996094 247.36669922 C-93.09131849 241.14701775 -110.20757702 229.8504188 -126 215 C-126.88558594 214.21109375 -126.88558594 214.21109375 -127.7890625 213.40625 C-142.88646754 199.3821202 -153.82296404 178.76332262 -159 159 C-159.19319824 158.30487305 -159.38639648 157.60974609 -159.58544922 156.89355469 C-165.48315015 135.06483956 -165.26252076 110.71966972 -159 89 C-158.79101074 88.27071289 -158.58202148 87.54142578 -158.36669922 86.79003906 C-152.14701775 65.90868151 -140.8504188 48.79242298 -126 33 C-125.4740625 32.40960938 -124.948125 31.81921875 -124.40625 31.2109375 C-110.3821202 16.11353246 -89.76332262 5.17703596 -70 0 C-69.30487305 -0.19319824 -68.60974609 -0.38639648 -67.89355469 -0.58544922 C-46.06483956 -6.48315015 -21.71966972 -6.26252076 0 0 Z " fill="#0F172A" transform="translate(163,4)"/>
<path d="M0 0 C0 5.61 0 11.22 0 17 C-4.15693002 16.168614 -7.23030359 15.16659363 -11.0625 13.5 C-18.55038289 10.25178851 -26.10328013 8.32257358 -34.23828125 10.63671875 C-37.35278316 11.94622892 -37.35278316 11.94622892 -40 14 C-40.41717279 16.41537838 -40.41717279 16.41537838 -40 19 C-36.54027092 22.59593889 -32.1950558 22.9915453 -27.5 23.875 C-17.54126488 25.92069727 -6.21107628 28.29577866 0.36328125 36.75390625 C3.65408338 43.02403541 4.25295878 49.32837221 2.41015625 56.19921875 C-0.54045164 63.12022988 -6.89880785 68.82978759 -13.6875 71.9375 C-28.04955927 76.54419826 -47.39362273 75.80318864 -61 69 C-61 62.73 -61 56.46 -61 50 C-57.52580194 50.86854951 -55.99743455 51.53082996 -53.125 53.375 C-45.20560533 57.89101845 -35.07903096 59.95568747 -26 59 C-23.52273166 58.17265894 -21.34667381 57.17333691 -19 56 C-19 53.69 -19 51.38 -19 49 C-23.59211334 46.44482722 -28.01999212 45.20827089 -33.125 44.1875 C-41.78978919 42.28680025 -51.0180257 39.80343354 -57.125 32.9375 C-61.11019761 26.69402374 -61.81011291 21.30127081 -61 14 C-59.21769622 7.76727302 -55.34553756 3.51844953 -50 0 C-35.10608281 -7.87465554 -14.99845121 -7.49922561 0 0 Z " fill="#FAFAFA" transform="translate(235,89)"/>
<path d="M0 0 C6.6 0 13.2 0 20 0 C20.01981934 1.50828369 20.03963867 3.01656738 20.06005859 4.57055664 C20.13629985 10.18221341 20.22498896 15.79361715 20.31738281 21.4050293 C20.35559604 23.83075962 20.39046211 26.25654513 20.421875 28.68237305 C20.46769153 32.17516767 20.52565941 35.66758489 20.5859375 39.16015625 C20.59748871 40.23959 20.60903992 41.31902374 20.62094116 42.4311676 C20.62077791 51.73465725 20.62077791 51.73465725 24.5625 59.875 C29.53930444 62.17198667 34.43614178 62.17945914 39.8125 61.5625 C43.44860154 59.78009728 44.49343764 58.09159529 46.18151855 54.47753906 C47.76045914 49.69809414 47.60378134 44.83421201 47.609375 39.84375 C47.62591125 38.70087524 47.64244751 37.55800049 47.65948486 36.38049316 C47.70781605 32.75360662 47.72930375 29.12713896 47.75 25.5 C47.77817197 23.0312291 47.8081011 20.56247758 47.83984375 18.09375 C47.9135717 12.06253449 47.96323772 6.03154951 48 0 C54.27 0 60.54 0 67 0 C67.11352168 7.2591004 67.20501192 14.51770574 67.25906086 21.77750969 C67.28501814 25.14953797 67.32015506 28.52092106 67.37719727 31.89257812 C67.43820924 35.78011759 67.4662944 39.6667547 67.48828125 43.5546875 C67.51408768 44.74988007 67.5398941 45.94507263 67.56648254 47.17648315 C67.56928738 55.6464143 66.01366371 62.33743606 60.38618469 68.87472534 C52.94357654 76.26360141 43.45279364 77.40300169 33.4375 77.5 C22.55321299 77.38500841 14.79357781 75.54472461 6.69140625 67.93359375 C1.75443038 62.28970678 -0.13078514 55.97603928 -0.11352539 48.58886719 C-0.11344986 47.50804871 -0.11337433 46.42723022 -0.11329651 45.31365967 C-0.10813522 44.15312073 -0.10297394 42.99258179 -0.09765625 41.796875 C-0.0962413 40.60394836 -0.09482635 39.41102173 -0.09336853 38.1819458 C-0.08777038 34.37127171 -0.07521819 30.56065634 -0.0625 26.75 C-0.05748476 24.16666752 -0.0529219 21.58333411 -0.04882812 19 C-0.03780155 12.66664404 -0.02053814 6.33333197 0 0 Z " fill="#FBFCFC" transform="translate(23,86)"/>
<path d="M0 0 C22.11 0 44.22 0 67 0 C67 4.62 67 9.24 67 14 C59.08 14 51.16 14 43 14 C43 34.13 43 54.26 43 75 C36.73 75 30.46 75 24 75 C24 54.87 24 34.74 24 14 C16.08 14 8.16 14 0 14 C0 9.38 0 4.76 0 0 Z " fill="#FEFEFE" transform="translate(100,86)"/>
</svg>
